<svg version="1.1" viewBox="0.0 0.0 600.0 371.0" fill="none" stroke="none" stroke-linecap="square" stroke-miterlimit="10" width="600" height="371" xmlns:xlink="http://www.w3.org/1999/xlink" xmlns="http://www.w3.org/2000/svg"><path fill="#ffffff" d="M0 0L600.0 0L600.0 371.0L0 371.0L0 0Z" fill-rule="nonzero"/><path stroke="#cccccc" stroke-width="1.0" stroke-linecap="butt" d="M99.5 88.5L99.5 300.5" fill-rule="nonzero"/><path stroke="#cccccc" stroke-width="1.0" stroke-linecap="butt" d="M206.5 88.5L206.5 300.5" fill-rule="nonzero"/><path stroke="#cccccc" stroke-width="1.0" stroke-linecap="butt" d="M313.5 88.5L313.5 300.5" fill-rule="nonzero"/><path stroke="#cccccc" stroke-width="1.0" stroke-linecap="butt" d="M420.5 88.5L420.5 300.5" fill-rule="nonzero"/><path stroke="#cccccc" stroke-width="1.0" stroke-linecap="butt" d="M527.5 88.5L527.5 300.5" fill-rule="nonzero"/><path stroke="#333333" stroke-width="1.0" stroke-linecap="butt" d="M45.5 300.5L581.5 300.5" fill-rule="nonzero"/><path stroke="#cccccc" stroke-width="1.0" stroke-linecap="butt" d="M45.5 247.5L581.5 247.5" fill-rule="nonzero"/><path stroke="#cccccc" stroke-width="1.0" stroke-linecap="butt" d="M45.5 194.5L581.5 194.5" fill-rule="nonzero"/><path stroke="#cccccc" stroke-width="1.0" stroke-linecap="butt" d="M45.5 141.5L581.5 141.5" fill-rule="nonzero"/><path stroke="#cccccc" stroke-width="1.0" stroke-linecap="butt" d="M45.5 88.5L581.5 88.5" fill-rule="nonzero"/><clipPath id="id_0"><path d="M45.55 88.28333L581.45 88.28333L581.45 300.45L45.55 300.45L45.55 88.28333Z" clip-rule="nonzero"/></clipPath><path stroke="#4285f4" stroke-width="2.0" stroke-linecap="butt" clip-path="url(#id_0)" d="M45.55 247.40834L313.5 141.325L581.45 182.57964" fill-rule="nonzero"/><path stroke="#ea4335" stroke-width="2.0" stroke-linecap="butt" clip-path="url(#id_0)" d="M45.55 247.40834L313.5 141.325L581.45 88.28333" fill-rule="nonzero"/><path fill="#000000" fill-opacity="0.0" clip-path="url(#id_0)" d="M48.55 247.40834C48.55 249.06519 47.206856 250.40834 45.55 250.40834C43.893147 250.40834 42.55 249.06519 42.55 247.40834C42.55 245.75148 43.893147 244.40834 45.55 244.40834C47.206856 244.40834 48.55 245.75148 48.55 247.40834Z" fill-rule="nonzero"/><path fill="#000000" fill-opacity="0.0" clip-path="url(#id_0)" d="M316.5 141.325C316.5 142.98186 315.15686 144.325 313.5 144.325C311.84314 144.325 310.5 142.98186 310.5 141.325C310.5 139.66815 311.84314 138.325 313.5 138.325C315.15686 138.325 316.5 139.66815 316.5 141.325Z" fill-rule="nonzero"/><path fill="#000000" fill-opacity="0.0" clip-path="url(#id_0)" d="M584.45 182.57964C584.45 184.23648 583.1069 185.57964 581.45 185.57964C579.79315 185.57964 578.45 184.23648 578.45 182.57964C578.45 180.92278 579.79315 179.57964 581.45 179.57964C583.1069 179.57964 584.45 180.92278 584.45 182.57964Z" fill-rule="nonzero"/><path fill="#000000" fill-opacity="0.0" clip-path="url(#id_0)" d="M48.55 247.40834C48.55 249.06519 47.206856 250.40834 45.55 250.40834C43.893147 250.40834 42.55 249.06519 42.55 247.40834C42.55 245.75148 43.893147 244.40834 45.55 244.40834C47.206856 244.40834 48.55 245.75148 48.55 247.40834Z" fill-rule="nonzero"/><path fill="#000000" fill-opacity="0.0" clip-path="url(#id_0)" d="M316.5 141.325C316.5 142.98186 315.15686 144.325 313.5 144.325C311.84314 144.325 310.5 142.98186 310.5 141.325C310.5 139.66815 311.84314 138.325 313.5 138.325C315.15686 138.325 316.5 139.66815 316.5 141.325Z" fill-rule="nonzero"/><path fill="#000000" fill-opacity="0.0" clip-path="url(#id_0)" d="M584.45 88.28333C584.45 89.940186 583.1069 91.28333 581.45 91.28333C579.79315 91.28333 578.45 89.940186 578.45 88.28333C578.45 86.62648 579.79315 85.28333 581.45 85.28333C583.1069 85.28333 584.45 86.62648 584.45 88.28333Z" fill-rule="nonzero"/><path fill="#000000" d="M310.42188 349.45L308.14062 340.85626L309.3125 340.85626L310.625 346.4969Q310.82812 347.3719 310.98438 348.2469Q311.3125 346.8719 311.375 346.65314L313.0 340.85626L314.375 340.85626L315.60938 345.2Q316.0625 346.825 316.28125 348.2469Q316.4375 347.4344 316.70312 346.3719L318.04688 340.85626L319.1875 340.85626L316.84375 349.45L315.73438 349.45L313.9375 342.90314Q313.70312 342.09064 313.65625 341.90314Q313.53125 342.48126 313.40625 342.90314L311.59375 349.45L310.42188 349.45Z" fill-rule="nonzero"/><path fill="#000000" d="M23.05 300.21564Q23.05 298.6844 23.3625 297.7625Q23.675 296.825 24.284374 296.325Q24.909374 295.825 25.846874 295.825Q26.534374 295.825 27.05 296.10626Q27.58125 296.3875 27.925 296.91876Q28.26875 297.4344 28.45625 298.1844Q28.64375 298.9344 28.64375 300.21564Q28.64375 301.73126 28.33125 302.65314Q28.034374 303.575 27.409374 304.09064Q26.8 304.59064 25.846874 304.59064Q24.6125 304.59064 23.89375 303.7Q23.05 302.6375 23.05 300.21564ZM24.128124 300.21564Q24.128124 302.325 24.628124 303.02814Q25.128124 303.73126 25.846874 303.73126Q26.58125 303.73126 27.065624 303.02814Q27.565624 302.325 27.565624 300.21564Q27.565624 298.09064 27.065624 297.40314Q26.58125 296.7 25.83125 296.7Q25.1125 296.7 24.675 297.3094Q24.128124 298.09064 24.128124 300.21564ZM30.6125 304.45L30.6125 303.2469L31.815624 303.2469L31.815624 304.45Q31.815624 305.10626 31.58125 305.5125Q31.346874 305.9344 30.846874 306.15314L30.55 305.7Q30.878124 305.5594 31.034374 305.2625Q31.190624 304.98126 31.221874 304.45L30.6125 304.45ZM33.05 300.21564Q33.05 298.6844 33.3625 297.7625Q33.675 296.825 34.284374 296.325Q34.909374 295.825 35.846874 295.825Q36.534374 295.825 37.05 296.10626Q37.58125 296.3875 37.925 296.91876Q38.26875 297.4344 38.45625 298.1844Q38.64375 298.9344 38.64375 300.21564Q38.64375 301.73126 38.33125 302.65314Q38.034374 303.575 37.409374 304.09064Q36.8 304.59064 35.846874 304.59064Q34.6125 304.59064 33.89375 303.7Q33.05 302.6375 33.05 300.21564ZM34.128124 300.21564Q34.128124 302.325 34.628124 303.02814Q35.128124 303.73126 35.846874 303.73126Q36.58125 303.73126 37.065624 303.02814Q37.565624 302.325 37.565624 300.21564Q37.565624 298.09064 37.065624 297.40314Q36.58125 296.7 35.83125 296.7Q35.1125 296.7 34.675 297.3094Q34.128124 298.09064 34.128124 300.21564Z" fill-rule="nonzero"/><path fill="#000000" d="M23.05 247.17397Q23.05 245.64272 23.3625 244.72084Q23.675 243.78334 24.284374 243.28334Q24.909374 242.78334 25.846874 242.78334Q26.534374 242.78334 27.05 243.06459Q27.58125 243.34584 27.925 243.87709Q28.26875 244.39272 28.45625 245.14272Q28.64375 245.89272 28.64375 247.17397Q28.64375 248.68959 28.33125 249.61147Q28.034374 250.53334 27.409374 251.04897Q26.8 251.54897 25.846874 251.54897Q24.6125 251.54897 23.89375 250.65834Q23.05 249.59584 23.05 247.17397ZM24.128124 247.17397Q24.128124 249.28334 24.628124 249.98647Q25.128124 250.68959 25.846874 250.68959Q26.58125 250.68959 27.065624 249.98647Q27.565624 249.28334 27.565624 247.17397Q27.565624 245.04897 27.065624 244.36147Q26.58125 243.65834 25.83125 243.65834Q25.1125 243.65834 24.675 244.26772Q24.128124 245.04897 24.128124 247.17397ZM30.6125 251.40834L30.6125 250.20522L31.815624 250.20522L31.815624 251.40834Q31.815624 252.06459 31.58125 252.47084Q31.346874 252.89272 30.846874 253.11147L30.55 252.65834Q30.878124 252.51772 31.034374 252.22084Q31.190624 251.93959 31.221874 251.40834L30.6125 251.40834ZM38.596874 250.39272L38.596874 251.40834L32.909374 251.40834Q32.909374 251.03334 33.034374 250.67397Q33.253124 250.09584 33.721874 249.53334Q34.20625 248.97084 35.1125 248.23647Q36.51875 247.08022 37.003124 246.40834Q37.503124 245.73647 37.503124 245.14272Q37.503124 244.51772 37.05 244.09584Q36.596874 243.65834 35.878124 243.65834Q35.1125 243.65834 34.659374 244.11147Q34.20625 244.56459 34.190624 245.37709L33.1125 245.26772Q33.221874 244.04897 33.940624 243.42397Q34.675 242.78334 35.909374 242.78334Q37.14375 242.78334 37.8625 243.47084Q38.58125 244.15834 38.58125 245.17397Q38.58125 245.68959 38.3625 246.18959Q38.159374 246.67397 37.659374 247.23647Q37.175 247.78334 36.05 248.73647Q35.096874 249.53334 34.815624 249.83022Q34.55 250.11147 34.378124 250.39272L38.596874 250.39272Z" fill-rule="nonzero"/><path fill="#000000" d="M23.05 194.1323Q23.05 192.60104 23.3625 191.67917Q23.675 190.74167 24.284374 190.24167Q24.909374 189.74167 25.846874 189.74167Q26.534374 189.74167 27.05 190.02292Q27.58125 190.30417 27.925 190.83542Q28.26875 191.35104 28.45625 192.10104Q28.64375 192.85104 28.64375 194.1323Q28.64375 195.64792 28.33125 196.5698Q28.034374 197.49167 27.409374 198.0073Q26.8 198.5073 25.846874 198.5073Q24.6125 198.5073 23.89375 197.61667Q23.05 196.55417 23.05 194.1323ZM24.128124 194.1323Q24.128124 196.24167 24.628124 196.9448Q25.128124 197.64792 25.846874 197.64792Q26.58125 197.64792 27.065624 196.9448Q27.565624 196.24167 27.565624 194.1323Q27.565624 192.0073 27.065624 191.3198Q26.58125 190.61667 25.83125 190.61667Q25.1125 190.61667 24.675 191.22604Q24.128124 192.0073 24.128124 194.1323ZM30.6125 198.36667L30.6125 197.16354L31.815624 197.16354L31.815624 198.36667Q31.815624 199.02292 31.58125 199.42917Q31.346874 199.85104 30.846874 200.0698L30.55 199.61667Q30.878124 199.47604 31.034374 199.17917Q31.190624 198.89792 31.221874 198.36667L30.6125 198.36667ZM36.425 198.36667L36.425 196.30417L32.70625 196.30417L32.70625 195.33542L36.628124 189.77292L37.4875 189.77292L37.4875 195.33542L38.64375 195.33542L38.64375 196.30417L37.4875 196.30417L37.4875 198.36667L36.425 198.36667ZM36.425 195.33542L36.425 191.47604L33.7375 195.33542L36.425 195.33542Z" fill-rule="nonzero"/><path fill="#000000" d="M23.05 141.09062Q23.05 139.55937 23.3625 138.6375Q23.675 137.7 24.284374 137.2Q24.909374 136.7 25.846874 136.7Q26.534374 136.7 27.05 136.98125Q27.58125 137.2625 27.925 137.79375Q28.26875 138.30937 28.45625 139.05937Q28.64375 139.80937 28.64375 141.09062Q28.64375 142.60625 28.33125 143.52812Q28.034374 144.45 27.409374 144.96562Q26.8 145.46562 25.846874 145.46562Q24.6125 145.46562 23.89375 144.575Q23.05 143.5125 23.05 141.09062ZM24.128124 141.09062Q24.128124 143.2 24.628124 143.90312Q25.128124 144.60625 25.846874 144.60625Q26.58125 144.60625 27.065624 143.90312Q27.565624 143.2 27.565624 141.09062Q27.565624 138.96562 27.065624 138.27812Q26.58125 137.575 25.83125 137.575Q25.1125 137.575 24.675 138.18437Q24.128124 138.96562 24.128124 141.09062ZM30.6125 145.325L30.6125 144.12187L31.815624 144.12187L31.815624 145.325Q31.815624 145.98125 31.58125 146.3875Q31.346874 146.80937 30.846874 147.02812L30.55 146.575Q30.878124 146.43437 31.034374 146.1375Q31.190624 145.85625 31.221874 145.325L30.6125 145.325ZM38.51875 138.84062L37.471874 138.91875Q37.33125 138.29375 37.08125 138.0125Q36.64375 137.55937 36.01875 137.55937Q35.51875 137.55937 35.128124 137.84062Q34.64375 138.21562 34.346874 138.91875Q34.065624 139.60625 34.05 140.8875Q34.425 140.30937 34.971874 140.02812Q35.534374 139.74687 36.14375 139.74687Q37.190624 139.74687 37.925 140.52812Q38.675 141.30937 38.675 142.52812Q38.675 143.34062 38.315624 144.04375Q37.971874 144.73125 37.3625 145.10625Q36.753124 145.46562 35.9875 145.46562Q34.659374 145.46562 33.83125 144.49687Q33.003124 143.52812 33.003124 141.30937Q33.003124 138.80937 33.925 137.68437Q34.721874 136.7 36.08125 136.7Q37.096874 136.7 37.7375 137.27812Q38.39375 137.84062 38.51875 138.84062ZM34.221874 142.54375Q34.221874 143.09062 34.440624 143.59062Q34.675 144.075 35.08125 144.34062Q35.503124 144.60625 35.971874 144.60625Q36.628124 144.60625 37.1125 144.075Q37.596874 143.52812 37.596874 142.60625Q37.596874 141.71562 37.1125 141.2Q36.64375 140.68437 35.925 140.68437Q35.20625 140.68437 34.70625 141.2Q34.221874 141.71562 34.221874 142.54375Z" fill-rule="nonzero"/><path fill="#000000" d="M23.05 88.04896Q23.05 86.51771 23.3625 85.59583Q23.675 84.65833 24.284374 84.15833Q24.909374 83.65833 25.846874 83.65833Q26.534374 83.65833 27.05 83.93958Q27.58125 84.22083 27.925 84.75208Q28.26875 85.26771 28.45625 86.01771Q28.64375 86.76771 28.64375 88.04896Q28.64375 89.56458 28.33125 90.48646Q28.034374 91.40833 27.409374 91.92396Q26.8 92.42396 25.846874 92.42396Q24.6125 92.42396 23.89375 91.53333Q23.05 90.47083 23.05 88.04896ZM24.128124 88.04896Q24.128124 90.15833 24.628124 90.86146Q25.128124 91.56458 25.846874 91.56458Q26.58125 91.56458 27.065624 90.86146Q27.565624 90.15833 27.565624 88.04896Q27.565624 85.92396 27.065624 85.23646Q26.58125 84.53333 25.83125 84.53333Q25.1125 84.53333 24.675 85.14271Q24.128124 85.92396 24.128124 88.04896ZM30.6125 92.28333L30.6125 91.08021L31.815624 91.08021L31.815624 92.28333Q31.815624 92.93958 31.58125 93.34583Q31.346874 93.76771 30.846874 93.98646L30.55 93.53333Q30.878124 93.39271 31.034374 93.09583Q31.190624 92.81458 31.221874 92.28333L30.6125 92.28333ZM34.675 87.62708Q34.01875 87.37708 33.690624 86.93958Q33.378124 86.48646 33.378124 85.87708Q33.378124 84.93958 34.05 84.29896Q34.7375 83.65833 35.846874 83.65833Q36.971874 83.65833 37.659374 84.31458Q38.346874 84.97083 38.346874 85.90833Q38.346874 86.50208 38.034374 86.93958Q37.721874 87.37708 37.08125 87.62708Q37.878124 87.87708 38.284374 88.45521Q38.690624 89.03333 38.690624 89.83021Q38.690624 90.92396 37.909374 91.67396Q37.14375 92.42396 35.8625 92.42396Q34.596874 92.42396 33.815624 91.67396Q33.034374 90.92396 33.034374 89.79896Q33.034374 88.95521 33.45625 88.39271Q33.89375 87.83021 34.675 87.62708ZM34.45625 85.83021Q34.45625 86.43958 34.846874 86.83021Q35.253124 87.22083 35.878124 87.22083Q36.4875 87.22083 36.878124 86.84583Q37.26875 86.45521 37.26875 85.89271Q37.26875 85.31458 36.8625 84.92396Q36.45625 84.51771 35.8625 84.51771Q35.253124 84.51771 34.846874 84.90833Q34.45625 85.29896 34.45625 85.83021ZM34.128124 89.79896Q34.128124 90.25208 34.33125 90.67396Q34.55 91.09583 34.971874 91.33021Q35.39375 91.56458 35.878124 91.56458Q36.628124 91.56458 37.1125 91.08021Q37.6125 90.59583 37.6125 89.84583Q37.6125 89.08021 37.1125 88.58021Q36.6125 88.08021 35.846874 88.08021Q35.096874 88.08021 34.6125 88.58021Q34.128124 89.06458 34.128124 89.79896Z" fill-rule="nonzero"/><path fill="#000000" d="M91.14 313.21564Q91.14 311.6844 91.4525 310.7625Q91.765 309.825 92.374374 309.325Q92.999374 308.825 93.936874 308.825Q94.624374 308.825 95.14 309.10626Q95.67125 309.3875 96.015 309.91876Q96.35875 310.4344 96.54625 311.1844Q96.73375 311.9344 96.73375 313.21564Q96.73375 314.73126 96.42125 315.65314Q96.124374 316.575 95.499374 317.09064Q94.89 317.59064 93.936874 317.59064Q92.7025 317.59064 91.98375 316.7Q91.14 315.6375 91.14 313.21564ZM92.218124 313.21564Q92.218124 315.325 92.718124 316.02814Q93.218124 316.73126 93.936874 316.73126Q94.67125 316.73126 95.155624 316.02814Q95.655624 315.325 95.655624 313.21564Q95.655624 311.09064 95.155624 310.40314Q94.67125 309.7 93.92125 309.7Q93.2025 309.7 92.765 310.3094Q92.218124 311.09064 92.218124 313.21564ZM98.7025 317.45L98.7025 316.2469L99.905624 316.2469L99.905624 317.45Q99.905624 318.10626 99.67125 318.5125Q99.436874 318.9344 98.936874 319.15314L98.64 318.7Q98.968124 318.5594 99.124374 318.2625Q99.280624 317.98126 99.311874 317.45L98.7025 317.45ZM101.14 315.1844L102.2025 315.04376Q102.374374 315.9344 102.811874 316.34064Q103.249374 316.73126 103.874374 316.73126Q104.624374 316.73126 105.14 316.21564Q105.655624 315.7 105.655624 314.9344Q105.655624 314.21564 105.17125 313.7469Q104.7025 313.2625 103.968124 313.2625Q103.67125 313.2625 103.218124 313.3875L103.343124 312.45Q103.4525 312.46564 103.515 312.46564Q104.186874 312.46564 104.718124 312.1219Q105.265 311.7625 105.265 311.02814Q105.265 310.45 104.874374 310.075Q104.48375 309.6844 103.85875 309.6844Q103.249374 309.6844 102.8275 310.075Q102.42125 310.46564 102.311874 311.23126L101.249374 311.04376Q101.436874 309.9969 102.124374 309.41876Q102.811874 308.825 103.8275 308.825Q104.530624 308.825 105.124374 309.1375Q105.718124 309.4344 106.030624 309.95Q106.343124 310.46564 106.343124 311.0594Q106.343124 311.60626 106.04625 312.075Q105.749374 312.52814 105.17125 312.79376Q105.92125 312.96564 106.343124 313.52814Q106.765 314.075 106.765 314.91876Q106.765 316.04376 105.936874 316.825Q105.124374 317.60626 103.874374 317.60626Q102.749374 317.60626 101.999374 316.9344Q101.249374 316.2469 101.14 315.1844Z" fill-rule="nonzero"/><path fill="#000000" d="M198.32 313.21564Q198.32 311.6844 198.6325 310.7625Q198.945 309.825 199.55438 309.325Q200.17938 308.825 201.11688 308.825Q201.80438 308.825 202.32 309.10626Q202.85126 309.3875 203.195 309.91876Q203.53876 310.4344 203.72626 311.1844Q203.91376 311.9344 203.91376 313.21564Q203.91376 314.73126 203.60126 315.65314Q203.30438 316.575 202.67938 317.09064Q202.07 317.59064 201.11688 317.59064Q199.8825 317.59064 199.16376 316.7Q198.32 315.6375 198.32 313.21564ZM199.39813 313.21564Q199.39813 315.325 199.89813 316.02814Q200.39813 316.73126 201.11688 316.73126Q201.85126 316.73126 202.33563 316.02814Q202.83563 315.325 202.83563 313.21564Q202.83563 311.09064 202.33563 310.40314Q201.85126 309.7 201.10126 309.7Q200.3825 309.7 199.945 310.3094Q199.39813 311.09064 199.39813 313.21564ZM205.8825 317.45L205.8825 316.2469L207.08563 316.2469L207.08563 317.45Q207.08563 318.10626 206.85126 318.5125Q206.61688 318.9344 206.11688 319.15314L205.82 318.7Q206.14813 318.5594 206.30438 318.2625Q206.46063 317.98126 206.49188 317.45L205.8825 317.45ZM211.695 317.45L211.695 315.3875L207.97626 315.3875L207.97626 314.41876L211.89813 308.85626L212.7575 308.85626L212.7575 314.41876L213.91376 314.41876L213.91376 315.3875L212.7575 315.3875L212.7575 317.45L211.695 317.45ZM211.695 314.41876L211.695 310.5594L209.0075 314.41876L211.695 314.41876Z" fill-rule="nonzero"/><path fill="#000000" d="M305.5 313.21564Q305.5 311.6844 305.8125 310.7625Q306.125 309.825 306.73438 309.325Q307.35938 308.825 308.29688 308.825Q308.98438 308.825 309.5 309.10626Q310.03125 309.3875 310.375 309.91876Q310.71875 310.4344 310.90625 311.1844Q311.09375 311.9344 311.09375 313.21564Q311.09375 314.73126 310.78125 315.65314Q310.48438 316.575 309.85938 317.09064Q309.25 317.59064 308.29688 317.59064Q307.0625 317.59064 306.34375 316.7Q305.5 315.6375 305.5 313.21564ZM306.57812 313.21564Q306.57812 315.325 307.07812 316.02814Q307.57812 316.73126 308.29688 316.73126Q309.03125 316.73126 309.51562 316.02814Q310.01562 315.325 310.01562 313.21564Q310.01562 311.09064 309.51562 310.40314Q309.03125 309.7 308.28125 309.7Q307.5625 309.7 307.125 310.3094Q306.57812 311.09064 306.57812 313.21564ZM313.0625 317.45L313.0625 316.2469L314.26562 316.2469L314.26562 317.45Q314.26562 318.10626 314.03125 318.5125Q313.79688 318.9344 313.29688 319.15314L313.0 318.7Q313.32812 318.5594 313.48438 318.2625Q313.64062 317.98126 313.67188 317.45L313.0625 317.45ZM315.5 315.2L316.60938 315.10626Q316.73438 315.91876 317.17188 316.325Q317.625 316.73126 318.26562 316.73126Q319.01562 316.73126 319.54688 316.15314Q320.07812 315.575 320.07812 314.6375Q320.07812 313.73126 319.5625 313.21564Q319.0625 312.6844 318.23438 312.6844Q317.73438 312.6844 317.3125 312.91876Q316.90625 313.15314 316.67188 313.5125L315.6875 313.3875L316.51562 308.98126L320.79688 308.98126L320.79688 309.98126L317.35938 309.98126L316.90625 312.29376Q317.67188 311.7469 318.51562 311.7469Q319.64062 311.7469 320.40625 312.52814Q321.1875 313.3094 321.1875 314.54376Q321.1875 315.7 320.51562 316.5594Q319.6875 317.59064 318.26562 317.59064Q317.09375 317.59064 316.34375 316.9344Q315.60938 316.27814 315.5 315.2Z" fill-rule="nonzero"/><path fill="#000000" d="M412.68 313.21564Q412.68 311.6844 412.9925 310.7625Q413.305 309.825 413.91437 309.325Q414.53937 308.825 415.47687 308.825Q416.16437 308.825 416.68 309.10626Q417.21124 309.3875 417.555 309.91876Q417.89874 310.4344 418.08624 311.1844Q418.27374 311.9344 418.27374 313.21564Q418.27374 314.73126 417.96124 315.65314Q417.66437 316.575 417.03937 317.09064Q416.43 317.59064 415.47687 317.59064Q414.2425 317.59064 413.52374 316.7Q412.68 315.6375 412.68 313.21564ZM413.75812 313.21564Q413.75812 315.325 414.25812 316.02814Q414.75812 316.73126 415.47687 316.73126Q416.21124 316.73126 416.69562 316.02814Q417.19562 315.325 417.19562 313.21564Q417.19562 311.09064 416.69562 310.40314Q416.21124 309.7 415.46124 309.7Q414.7425 309.7 414.305 310.3094Q413.75812 311.09064 413.75812 313.21564ZM420.2425 317.45L420.2425 316.2469L421.44562 316.2469L421.44562 317.45Q421.44562 318.10626 421.21124 318.5125Q420.97687 318.9344 420.47687 319.15314L420.18 318.7Q420.50812 318.5594 420.66437 318.2625Q420.82062 317.98126 420.85187 317.45L420.2425 317.45ZM428.14874 310.96564L427.10187 311.04376Q426.96124 310.41876 426.71124 310.1375Q426.27374 309.6844 425.64874 309.6844Q425.14874 309.6844 424.75812 309.96564Q424.27374 310.34064 423.97687 311.04376Q423.69562 311.73126 423.68 313.0125Q424.055 312.4344 424.60187 312.15314Q425.16437 311.8719 425.77374 311.8719Q426.82062 311.8719 427.555 312.65314Q428.305 313.4344 428.305 314.65314Q428.305 315.46564 427.94562 316.16876Q427.60187 316.85626 426.9925 317.23126Q426.38312 317.59064 425.6175 317.59064Q424.28937 317.59064 423.46124 316.6219Q422.63312 315.65314 422.63312 313.4344Q422.63312 310.9344 423.555 309.8094Q424.35187 308.825 425.71124 308.825Q426.72687 308.825 427.3675 309.40314Q428.02374 309.96564 428.14874 310.96564ZM423.85187 314.66876Q423.85187 315.21564 424.07062 315.71564Q424.305 316.2 424.71124 316.46564Q425.13312 316.73126 425.60187 316.73126Q426.25812 316.73126 426.7425 316.2Q427.22687 315.65314 427.22687 314.73126Q427.22687 313.84064 426.7425 313.325Q426.27374 312.8094 425.555 312.8094Q424.83624 312.8094 424.33624 313.325Q423.85187 313.84064 423.85187 314.66876Z" fill-rule="nonzero"/><path fill="#000000" d="M519.86 313.21564Q519.86 311.6844 520.1725 310.7625Q520.485 309.825 521.09436 309.325Q521.71936 308.825 522.65686 308.825Q523.34436 308.825 523.86 309.10626Q524.39124 309.3875 524.735 309.91876Q525.07874 310.4344 525.26624 311.1844Q525.45374 311.9344 525.45374 313.21564Q525.45374 314.73126 525.14124 315.65314Q524.84436 316.575 524.21936 317.09064Q523.61 317.59064 522.65686 317.59064Q521.4225 317.59064 520.70374 316.7Q519.86 315.6375 519.86 313.21564ZM520.9381 313.21564Q520.9381 315.325 521.4381 316.02814Q521.9381 316.73126 522.65686 316.73126Q523.39124 316.73126 523.8756 316.02814Q524.3756 315.325 524.3756 313.21564Q524.3756 311.09064 523.8756 310.40314Q523.39124 309.7 522.64124 309.7Q521.9225 309.7 521.485 310.3094Q520.9381 311.09064 520.9381 313.21564ZM527.4225 317.45L527.4225 316.2469L528.6256 316.2469L528.6256 317.45Q528.6256 318.10626 528.39124 318.5125Q528.15686 318.9344 527.65686 319.15314L527.36 318.7Q527.6881 318.5594 527.84436 318.2625Q528.0006 317.98126 528.03186 317.45L527.4225 317.45ZM529.9225 309.98126L529.9225 308.96564L535.485 308.96564L535.485 309.79376Q534.6725 310.66876 533.86 312.1219Q533.0631 313.5594 532.6256 315.09064Q532.2975 316.16876 532.21936 317.45L531.1256 317.45Q531.14124 316.4344 531.51624 314.9969Q531.90686 313.5594 532.61 312.23126Q533.32874 310.90314 534.14124 309.98126L529.9225 309.98126Z" fill-rule="nonzero"/><path stroke="#4285f4" stroke-width="4.0" stroke-linecap="butt" d="M256.5 61.916668L268.5 61.916668" fill-rule="nonzero"/><path fill="#1a1a1a" d="M277.42188 65.916664L277.42188 57.322914L280.67188 57.322914Q281.51562 57.322914 281.96875 57.40104Q282.60938 57.510414 283.03125 57.80729Q283.46875 58.104164 283.71875 58.635414Q283.98438 59.166664 283.98438 59.80729Q283.98438 60.90104 283.28125 61.666664Q282.59375 62.416664 280.76562 62.416664L278.5625 62.416664L278.5625 65.916664L277.42188 65.916664ZM278.5625 61.416664L280.78125 61.416664Q281.89062 61.416664 282.34375 61.010414Q282.8125 60.58854 282.8125 59.83854Q282.8125 59.30729 282.53125 58.93229Q282.26562 58.541664 281.82812 58.416664Q281.53125 58.33854 280.76562 58.33854L278.5625 58.33854L278.5625 61.416664ZM284.48438 65.916664L287.78125 57.322914L289.0 57.322914L292.51562 65.916664L291.23438 65.916664L290.21875 63.30729L286.64062 63.30729L285.6875 65.916664L284.48438 65.916664ZM286.96875 62.385414L289.875 62.385414L288.98438 60.010414Q288.5625 58.93229 288.375 58.229164Q288.20312 59.05729 287.90625 59.86979L286.96875 62.385414Z" fill-rule="nonzero"/><path stroke="#ea4335" stroke-width="4.0" stroke-linecap="butt" d="M307.5 61.916668L319.5 61.916668" fill-rule="nonzero"/><path fill="#1a1a1a" d="M328.42188 65.916664L328.42188 57.322914L331.67188 57.322914Q332.51562 57.322914 332.96875 57.40104Q333.60938 57.510414 334.03125 57.80729Q334.46875 58.104164 334.71875 58.635414Q334.98438 59.166664 334.98438 59.80729Q334.98438 60.90104 334.28125 61.666664Q333.59375 62.416664 331.76562 62.416664L329.5625 62.416664L329.5625 65.916664L328.42188 65.916664ZM329.5625 61.416664L331.78125 61.416664Q332.89062 61.416664 333.34375 61.010414Q333.8125 60.58854 333.8125 59.83854Q333.8125 59.30729 333.53125 58.93229Q333.26562 58.541664 332.82812 58.416664Q332.53125 58.33854 331.76562 58.33854L329.5625 58.33854L329.5625 61.416664ZM336.375 65.916664L336.375 57.322914L339.60938 57.322914Q340.59375 57.322914 341.1875 57.58854Q341.78125 57.854164 342.10938 58.40104Q342.45312 58.93229 342.45312 59.52604Q342.45312 60.072914 342.15625 60.55729Q341.85938 61.041664 341.25 61.33854Q342.03125 61.572914 342.4375 62.135414Q342.85938 62.68229 342.85938 63.43229Q342.85938 64.02604 342.60938 64.55729Q342.35938 65.072914 341.98438 65.354164Q341.60938 65.635414 341.03125 65.77604Q340.46875 65.916664 339.65625 65.916664L336.375 65.916664ZM337.51562 60.93229L339.375 60.93229Q340.125 60.93229 340.45312 60.83854Q340.89062 60.71354 341.10938 60.416664Q341.32812 60.104164 341.32812 59.65104Q341.32812 59.229164 341.125 58.90104Q340.92188 58.572914 340.53125 58.46354Q340.15625 58.33854 339.23438 58.33854L337.51562 58.33854L337.51562 60.93229ZM337.51562 64.90104L339.65625 64.90104Q340.20312 64.90104 340.42188 64.854164Q340.82812 64.791664 341.07812 64.635414Q341.34375 64.46354 341.51562 64.15104Q341.6875 63.83854 341.6875 63.43229Q341.6875 62.947914 341.4375 62.58854Q341.20312 62.229164 340.76562 62.08854Q340.32812 61.947914 339.5 61.947914L337.51562 61.947914L337.51562 64.90104Z" fill-rule="nonzero"/><path fill="#757575" d="M20.096874 37.55L20.096874 23.2375L25.4875 23.2375Q26.925 23.2375 27.675 23.3625Q28.721874 23.55 29.440624 24.05Q30.159374 24.534374 30.58125 25.425Q31.01875 26.315624 31.01875 27.378124Q31.01875 29.20625 29.846874 30.471874Q28.690624 31.721874 25.659374 31.721874L21.9875 31.721874L21.9875 37.55L20.096874 37.55ZM21.9875 30.034374L25.690624 30.034374Q27.51875 30.034374 28.284374 29.3625Q29.065624 28.675 29.065624 27.425Q29.065624 26.534374 28.6125 25.89375Q28.159374 25.253124 27.425 25.05Q26.940624 24.925 25.64375 24.925L21.9875 24.925L21.9875 30.034374ZM31.51875 37.55L37.01875 23.2375L39.065624 23.2375L44.925 37.55L42.76875 37.55L41.096874 33.20625L35.1125 33.20625L33.534374 37.55L31.51875 37.55ZM35.659374 31.675L40.503124 31.675L39.01875 27.70625Q38.33125 25.89375 38.003124 24.7375Q37.721874 26.1125 37.221874 27.471874L35.659374 31.675ZM55.221874 41.753124Q53.76875 39.925 52.76875 37.471874Q51.76875 35.003124 51.76875 32.3625Q51.76875 30.034374 52.51875 27.909374Q53.39375 25.440624 55.221874 22.9875L56.4875 22.9875Q55.3 25.01875 54.925 25.89375Q54.33125 27.2375 53.9875 28.70625Q53.565624 30.534374 53.565624 32.378124Q53.565624 37.065624 56.4875 41.753124L55.221874 41.753124ZM58.8625 27.175L60.628124 27.175L60.628124 35.08125L65.50313 27.175L67.39375 27.175L67.39375 37.55L65.64375 37.55L65.64375 29.690624L60.76875 37.55L58.8625 37.55L58.8625 27.175ZM64.97188 23.253124L66.175 23.253124Q66.03438 24.471874 65.28438 25.128124Q64.53438 25.784374 63.3 25.784374Q62.05 25.784374 61.3 25.14375Q60.55 24.4875 60.409374 23.253124L61.6125 23.253124Q61.7375 23.909374 62.14375 24.2375Q62.55 24.565624 63.2375 24.565624Q64.03438 24.565624 64.44063 24.253124Q64.84688 23.940624 64.97188 23.253124ZM68.925 27.175L71.65938 27.175L74.37813 35.471874L77.40938 27.175L79.94063 27.175L79.94063 37.55L78.175 37.55L78.175 29.20625L75.1125 37.55L73.53438 37.55L70.64375 28.8L70.64375 37.55L68.925 37.55L68.925 27.175ZM81.22188 32.3625Q81.22188 29.4875 82.81563 28.096874Q84.15938 26.940624 86.08125 26.940624Q88.22188 26.940624 89.56563 28.346874Q90.925 29.753124 90.925 32.221874Q90.925 34.221874 90.33125 35.378124Q89.7375 36.51875 88.58125 37.159374Q87.44063 37.784374 86.08125 37.784374Q83.89375 37.784374 82.55 36.39375Q81.22188 34.9875 81.22188 32.3625ZM83.01875 32.3625Q83.01875 34.3625 83.87813 35.346874Q84.75313 36.33125 86.08125 36.33125Q87.39375 36.33125 88.25313 35.346874Q89.12813 34.346874 89.12813 32.3Q89.12813 30.378124 88.25313 29.39375Q87.37813 28.39375 86.08125 28.39375Q84.75313 28.39375 83.87813 29.39375Q83.01875 30.378124 83.01875 32.3625ZM92.87813 27.175L96.925 27.175Q98.425 27.175 99.14375 27.425Q99.87813 27.675 100.39375 28.346874Q100.925 29.003124 100.925 29.925Q100.925 30.675 100.6125 31.2375Q100.31563 31.784374 99.69063 32.14375Q100.425 32.39375 100.90938 33.065624Q101.39375 33.7375 101.39375 34.64375Q101.3 36.128124 100.33125 36.846874Q99.37813 37.55 97.55 37.55L92.87813 37.55L92.87813 27.175ZM94.64375 31.55L96.51875 31.55Q97.62813 31.55 98.05 31.440624Q98.47188 31.315624 98.8 30.95625Q99.14375 30.596874 99.14375 30.096874Q99.14375 29.284374 98.55 28.95625Q97.97188 28.628124 96.56563 28.628124L94.64375 28.628124L94.64375 31.55ZM94.64375 36.096874L96.95625 36.096874Q98.44063 36.096874 99.00313 35.753124Q99.56563 35.409374 99.58125 34.565624Q99.58125 34.065624 99.25313 33.64375Q98.94063 33.20625 98.425 33.096874Q97.90938 32.9875 96.76875 32.9875L94.64375 32.9875L94.64375 36.096874ZM104.3625 37.55L104.3625 35.55L106.3625 35.55L106.3625 37.55L104.3625 37.55ZM115.87813 27.175L119.925 27.175Q121.425 27.175 122.14375 27.425Q122.87813 27.675 123.39375 28.346874Q123.925 29.003124 123.925 29.925Q123.925 30.675 123.6125 31.2375Q123.31563 31.784374 122.69063 32.14375Q123.425 32.39375 123.90938 33.065624Q124.39375 33.7375 124.39375 34.64375Q124.3 36.128124 123.33125 36.846874Q122.37813 37.55 120.55 37.55L115.87813 37.55L115.87813 27.175ZM117.64375 31.55L119.51875 31.55Q120.62813 31.55 121.05 31.440624Q121.47188 31.315624 121.8 30.95625Q122.14375 30.596874 122.14375 30.096874Q122.14375 29.284374 121.55 28.95625Q120.97188 28.628124 119.56563 28.628124L117.64375 28.628124L117.64375 31.55ZM117.64375 36.096874L119.95625 36.096874Q121.44063 36.096874 122.00313 35.753124Q122.56563 35.409374 122.58125 34.565624Q122.58125 34.065624 122.25313 33.64375Q121.94063 33.20625 121.425 33.096874Q120.90938 32.9875 119.76875 32.9875L117.64375 32.9875L117.64375 36.096874ZM126.8625 27.175L128.62813 27.175L128.62813 35.08125L133.50313 27.175L135.39375 27.175L135.39375 37.55L133.64375 37.55L133.64375 29.690624L128.76875 37.55L126.8625 37.55L126.8625 27.175ZM143.14375 27.175L143.14375 31.659374Q143.97188 31.659374 144.31563 31.346874Q144.65938 31.01875 145.31563 29.45625Q145.925 27.9875 146.425 27.58125Q146.89375 27.175 147.94063 27.175L148.58125 27.175L148.58125 28.628124L148.1125 28.628124Q147.40938 28.628124 147.20625 28.83125Q147.00313 29.05 146.58125 30.1125Q146.19063 31.128124 145.8625 31.51875Q145.53438 31.909374 144.83125 32.221874Q145.97188 32.534374 147.05 34.33125L148.9875 37.55L147.05 37.55L145.175 34.33125Q144.59688 33.3625 144.15938 33.065624Q143.7375 32.753124 143.14375 32.753124L143.14375 37.55L141.34688 37.55L141.34688 32.753124Q140.75313 32.753124 140.31563 33.05Q139.89375 33.346874 139.31563 34.33125L137.44063 37.55L135.50313 37.55L137.425 34.33125Q138.51875 32.534374 139.65938 32.221874Q138.87813 31.8625 138.56563 31.440624Q138.25313 31.01875 137.62813 29.409374Q137.40938 28.878124 137.175 28.753124Q136.925 28.628124 136.425 28.628124Q136.3 28.628124 135.90938 28.628124L135.90938 27.175L136.14375 27.175Q137.15938 27.175 137.56563 27.3Q137.9875 27.425 138.31563 27.815624Q138.64375 28.20625 139.175 29.45625Q139.81563 31.003124 140.14375 31.33125Q140.4875 31.659374 141.34688 31.659374L141.34688 27.175L143.14375 27.175ZM150.3625 37.55L150.3625 35.55L152.3625 35.55L152.3625 37.55L150.3625 37.55ZM157.01875 41.753124L155.76875 41.753124Q158.675 37.065624 158.675 32.378124Q158.675 30.534374 158.26875 28.7375Q157.925 27.26875 157.33125 25.925Q156.95625 25.034374 155.76875 22.9875L157.01875 22.9875Q158.8625 25.440624 159.7375 27.909374Q160.4875 30.034374 160.4875 32.3625Q160.4875 35.003124 159.47188 37.471874Q158.47188 39.925 157.01875 41.753124ZM167.925 27.175L176.34688 27.175L176.34688 28.628124L173.00313 28.628124L173.00313 37.55L171.26875 37.55L171.26875 28.628124L167.925 28.628124L167.925 27.175ZM184.64375 36.26875Q183.65938 37.096874 182.75313 37.440624Q181.84688 37.784374 180.81563 37.784374Q179.1125 37.784374 178.19063 36.95625Q177.26875 36.1125 177.26875 34.815624Q177.26875 34.05 177.6125 33.425Q177.97188 32.8 178.53438 32.425Q179.09688 32.034374 179.8 31.83125Q180.31563 31.70625 181.3625 31.565624Q183.4875 31.315624 184.4875 30.971874Q184.50313 30.6125 184.50313 30.503124Q184.50313 29.440624 184.00313 28.9875Q183.33125 28.39375 182.00313 28.39375Q180.75313 28.39375 180.15938 28.83125Q179.58125 29.26875 179.3 30.378124L177.58125 30.14375Q177.81563 29.034374 178.34688 28.3625Q178.87813 27.675 179.89375 27.315624Q180.90938 26.940624 182.25313 26.940624Q183.58125 26.940624 184.40938 27.253124Q185.2375 27.565624 185.62813 28.05Q186.01875 28.51875 186.175 29.2375Q186.26875 29.690624 186.26875 30.8625L186.26875 33.20625Q186.26875 35.659374 186.37813 36.315624Q186.4875 36.95625 186.83125 37.55L184.9875 37.55Q184.72188 37.003124 184.64375 36.26875ZM184.4875 32.346874Q183.53438 32.7375 181.6125 33.003124Q180.53438 33.159374 180.08125 33.3625Q179.64375 33.55 179.39375 33.925Q179.14375 34.3 179.14375 34.76875Q179.14375 35.471874 179.675 35.940624Q180.20625 36.409374 181.2375 36.409374Q182.25313 36.409374 183.03438 35.971874Q183.83125 35.51875 184.20625 34.753124Q184.4875 34.14375 184.4875 32.9875L184.4875 32.346874ZM195.09688 37.55L195.09688 23.2375L200.4875 23.2375Q201.925 23.2375 202.675 23.3625Q203.72188 23.55 204.44063 24.05Q205.15938 24.534374 205.58125 25.425Q206.01875 26.315624 206.01875 27.378124Q206.01875 29.20625 204.84688 30.471874Q203.69063 31.721874 200.65938 31.721874L196.9875 31.721874L196.9875 37.55L195.09688 37.55ZM196.9875 30.034374L200.69063 30.034374Q202.51875 30.034374 203.28438 29.3625Q204.06563 28.675 204.06563 27.425Q204.06563 26.534374 203.6125 25.89375Q203.15938 25.253124 202.425 25.05Q201.94063 24.925 200.64375 24.925L196.9875 24.925L196.9875 30.034374ZM208.01875 37.55L208.01875 23.2375L213.39375 23.2375Q215.03438 23.2375 216.01875 23.675Q217.00313 24.096874 217.56563 25.003124Q218.12813 25.909374 218.12813 26.89375Q218.12813 27.815624 217.62813 28.628124Q217.14375 29.440624 216.12813 29.925Q217.425 30.315624 218.12813 31.2375Q218.83125 32.14375 218.83125 33.39375Q218.83125 34.409374 218.39375 35.26875Q217.97188 36.128124 217.34688 36.596874Q216.72188 37.065624 215.78438 37.315624Q214.84688 37.55 213.47188 37.55L208.01875 37.55ZM209.90938 29.253124L213.00313 29.253124Q214.26875 29.253124 214.81563 29.08125Q215.53438 28.8625 215.89375 28.378124Q216.26875 27.878124 216.26875 27.1125Q216.26875 26.409374 215.925 25.8625Q215.58125 25.315624 214.94063 25.128124Q214.31563 24.925 212.76875 24.925L209.90938 24.925L209.90938 29.253124ZM209.90938 35.8625L213.47188 35.8625Q214.39375 35.8625 214.76875 35.784374Q215.425 35.675 215.8625 35.409374Q216.3 35.128124 216.58125 34.6125Q216.8625 34.08125 216.8625 33.39375Q216.8625 32.596874 216.45625 32.003124Q216.05 31.409374 215.31563 31.175Q214.58125 30.940624 213.22188 30.940624L209.90938 30.940624L209.90938 35.8625ZM230.22188 41.753124Q228.76875 39.925 227.76875 37.471874Q226.76875 35.003124 226.76875 32.3625Q226.76875 30.034374 227.51875 27.909374Q228.39375 25.440624 230.22188 22.9875L231.4875 22.9875Q230.3 25.01875 229.925 25.89375Q229.33125 27.2375 228.9875 28.70625Q228.56563 30.534374 228.56563 32.378124Q228.56563 37.065624 231.4875 41.753124L230.22188 41.753124ZM233.8625 27.175L235.62813 27.175L235.62813 35.08125L240.50313 27.175L242.39375 27.175L242.39375 37.55L240.64375 37.55L240.64375 29.690624L235.76875 37.55L233.8625 37.55L233.8625 27.175ZM239.97188 23.253124L241.175 23.253124Q241.03438 24.471874 240.28438 25.128124Q239.53438 25.784374 238.3 25.784374Q237.05 25.784374 236.3 25.14375Q235.55 24.4875 235.40938 23.253124L236.6125 23.253124Q236.7375 23.909374 237.14375 24.2375Q237.55 24.565624 238.2375 24.565624Q239.03438 24.565624 239.44063 24.253124Q239.84688 23.940624 239.97188 23.253124ZM243.925 27.175L246.65938 27.175L249.37813 35.471874L252.40938 27.175L254.94063 27.175L254.94063 37.55L253.175 37.55L253.175 29.20625L250.1125 37.55L248.53438 37.55L245.64375 28.8L245.64375 37.55L243.925 37.55L243.925 27.175ZM256.22186 32.3625Q256.22186 29.4875 257.8156 28.096874Q259.15936 26.940624 261.08124 26.940624Q263.22186 26.940624 264.5656 28.346874Q265.925 29.753124 265.925 32.221874Q265.925 34.221874 265.33124 35.378124Q264.7375 36.51875 263.58124 37.159374Q262.4406 37.784374 261.08124 37.784374Q258.89374 37.784374 257.55 36.39375Q256.22186 34.9875 256.22186 32.3625ZM258.01874 32.3625Q258.01874 34.3625 258.8781 35.346874Q259.7531 36.33125 261.08124 36.33125Q262.39374 36.33125 263.2531 35.346874Q264.1281 34.346874 264.1281 32.3Q264.1281 30.378124 263.2531 29.39375Q262.3781 28.39375 261.08124 28.39375Q259.7531 28.39375 258.8781 29.39375Q258.01874 30.378124 258.01874 32.3625ZM267.8781 27.175L271.925 27.175Q273.425 27.175 274.14374 27.425Q274.8781 27.675 275.39374 28.346874Q275.925 29.003124 275.925 29.925Q275.925 30.675 275.6125 31.2375Q275.3156 31.784374 274.6906 32.14375Q275.425 32.39375 275.90936 33.065624Q276.39374 33.7375 276.39374 34.64375Q276.3 36.128124 275.33124 36.846874Q274.3781 37.55 272.55 37.55L267.8781 37.55L267.8781 27.175ZM269.64374 31.55L271.51874 31.55Q272.6281 31.55 273.05 31.440624Q273.47186 31.315624 273.8 30.95625Q274.14374 30.596874 274.14374 30.096874Q274.14374 29.284374 273.55 28.95625Q272.97186 28.628124 271.5656 28.628124L269.64374 28.628124L269.64374 31.55ZM269.64374 36.096874L271.95624 36.096874Q273.4406 36.096874 274.0031 35.753124Q274.5656 35.409374 274.58124 34.565624Q274.58124 34.065624 274.2531 33.64375Q273.9406 33.20625 273.425 33.096874Q272.90936 32.9875 271.76874 32.9875L269.64374 32.9875L269.64374 36.096874ZM279.3625 37.55L279.3625 35.55L281.3625 35.55L281.3625 37.55L279.3625 37.55ZM290.8781 27.175L299.0656 27.175L299.0656 37.55L297.3 37.55L297.3 28.628124L292.64374 28.628124L292.64374 37.55L290.8781 37.55L290.8781 27.175ZM307.97186 34.20625L309.78436 34.440624Q309.3625 36.01875 308.1906 36.909374Q307.03436 37.784374 305.22186 37.784374Q302.95624 37.784374 301.6125 36.39375Q300.28436 34.9875 300.28436 32.45625Q300.28436 29.83125 301.6281 28.39375Q302.97186 26.940624 305.1281 26.940624Q307.20624 26.940624 308.51874 28.3625Q309.84686 29.76875 309.84686 32.346874Q309.84686 32.503124 309.83124 32.815624L302.09686 32.815624Q302.1906 34.51875 303.0656 35.425Q303.9406 36.33125 305.2375 36.33125Q306.20624 36.33125 306.8781 35.83125Q307.5656 35.315624 307.97186 34.20625ZM302.1906 31.3625L307.9875 31.3625Q307.8781 30.065624 307.33124 29.409374Q306.4875 28.39375 305.14374 28.39375Q303.9406 28.39375 303.1125 29.20625Q302.28436 30.003124 302.1906 31.3625ZM311.8625 41.51875L311.8625 27.175L313.47186 27.175L313.47186 28.51875Q314.03436 27.7375 314.7375 27.346874Q315.45624 26.940624 316.47186 26.940624Q317.8 26.940624 318.8156 27.628124Q319.83124 28.315624 320.34686 29.565624Q320.8781 30.8 320.8781 32.284374Q320.8781 33.878124 320.3 35.159374Q319.7375 36.425 318.64374 37.1125Q317.55 37.784374 316.34686 37.784374Q315.47186 37.784374 314.76874 37.409374Q314.08124 37.034374 313.6281 36.471874L313.6281 41.51875L311.8625 41.51875ZM313.45624 32.425Q313.45624 34.425 314.26874 35.378124Q315.08124 36.33125 316.2375 36.33125Q317.40936 36.33125 318.2375 35.346874Q319.08124 34.3625 319.08124 32.26875Q319.08124 30.3 318.2531 29.315624Q317.4406 28.315624 316.3156 28.315624Q315.1906 28.315624 314.3156 29.378124Q313.45624 30.425 313.45624 32.425ZM329.97186 34.20625L331.78436 34.440624Q331.3625 36.01875 330.1906 36.909374Q329.03436 37.784374 327.22186 37.784374Q324.95624 37.784374 323.6125 36.39375Q322.28436 34.9875 322.28436 32.45625Q322.28436 29.83125 323.6281 28.39375Q324.97186 26.940624 327.1281 26.940624Q329.20624 26.940624 330.51874 28.3625Q331.84686 29.76875 331.84686 32.346874Q331.84686 32.503124 331.83124 32.815624L324.09686 32.815624Q324.1906 34.51875 325.0656 35.425Q325.9406 36.33125 327.2375 36.33125Q328.20624 36.33125 328.8781 35.83125Q329.5656 35.315624 329.97186 34.20625ZM324.1906 31.3625L329.9875 31.3625Q329.8781 30.065624 329.33124 29.409374Q328.4875 28.39375 327.14374 28.39375Q325.9406 28.39375 325.1125 29.20625Q324.28436 30.003124 324.1906 31.3625ZM340.14374 27.175L340.14374 31.659374Q340.97186 31.659374 341.3156 31.346874Q341.65936 31.01875 342.3156 29.45625Q342.925 27.9875 343.425 27.58125Q343.89374 27.175 344.9406 27.175L345.58124 27.175L345.58124 28.628124L345.1125 28.628124Q344.40936 28.628124 344.20624 28.83125Q344.0031 29.05 343.58124 30.1125Q343.1906 31.128124 342.8625 31.51875Q342.53436 31.909374 341.83124 32.221874Q342.97186 32.534374 344.05 34.33125L345.9875 37.55L344.05 37.55L342.175 34.33125Q341.59686 33.3625 341.15936 33.065624Q340.7375 32.753124 340.14374 32.753124L340.14374 37.55L338.34686 37.55L338.34686 32.753124Q337.7531 32.753124 337.3156 33.05Q336.89374 33.346874 336.3156 34.33125L334.4406 37.55L332.5031 37.55L334.425 34.33125Q335.51874 32.534374 336.65936 32.221874Q335.8781 31.8625 335.5656 31.440624Q335.2531 31.01875 334.6281 29.409374Q334.40936 28.878124 334.175 28.753124Q333.925 28.628124 333.425 28.628124Q333.3 28.628124 332.90936 28.628124L332.90936 27.175L333.14374 27.175Q334.15936 27.175 334.5656 27.3Q334.9875 27.425 335.3156 27.815624Q335.64374 28.20625 336.175 29.45625Q336.8156 31.003124 337.14374 31.33125Q337.4875 31.659374 338.34686 31.659374L338.34686 27.175L340.14374 27.175ZM346.8625 27.175L348.6281 27.175L348.6281 35.08125L353.5031 27.175L355.39374 27.175L355.39374 37.55L353.64374 37.55L353.64374 29.690624L348.76874 37.55L346.8625 37.55L346.8625 27.175ZM355.925 27.175L364.34686 27.175L364.34686 28.628124L361.0031 28.628124L361.0031 37.55L359.26874 37.55L359.26874 28.628124L355.925 28.628124L355.925 27.175ZM365.8625 27.175L367.6281 27.175L367.6281 35.08125L372.5031 27.175L374.39374 27.175L374.39374 37.55L372.64374 37.55L372.64374 29.690624L367.76874 37.55L365.8625 37.55L365.8625 27.175ZM388.0031 37.55L386.2375 37.55L386.2375 26.346874Q385.6125 26.95625 384.58124 27.565624Q383.55 28.159374 382.72186 28.471874L382.72186 26.76875Q384.20624 26.08125 385.3 25.096874Q386.40936 24.096874 386.8625 23.175L388.0031 23.175L388.0031 37.55ZM392.8625 27.175L394.6281 27.175L394.6281 35.08125L399.5031 27.175L401.39374 27.175L401.39374 37.55L399.64374 37.55L399.64374 29.690624L394.76874 37.55L392.8625 37.55L392.8625 27.175ZM398.97186 23.253124L400.175 23.253124Q400.03436 24.471874 399.28436 25.128124Q398.53436 25.784374 397.3 25.784374Q396.05 25.784374 395.3 25.14375Q394.55 24.4875 394.40936 23.253124L395.6125 23.253124Q395.7375 23.909374 396.14374 24.2375Q396.55 24.565624 397.2375 24.565624Q398.03436 24.565624 398.4406 24.253124Q398.84686 23.940624 398.97186 23.253124ZM408.8781 27.175L417.0656 27.175L417.0656 37.55L415.3 37.55L415.3 28.628124L410.64374 28.628124L410.64374 37.55L408.8781 37.55L408.8781 27.175ZM418.8781 25.253124L418.8781 23.2375L420.64374 23.2375L420.64374 25.253124L418.8781 25.253124ZM418.8781 37.55L418.8781 27.175L420.64374 27.175L420.64374 37.55L418.8781 37.55ZM422.8625 27.175L424.6125 27.175L424.6125 31.659374Q425.45624 31.659374 425.78436 31.346874Q426.1281 31.01875 426.78436 29.45625Q427.3 28.2375 427.6125 27.846874Q427.9406 27.45625 428.3625 27.315624Q428.78436 27.175 429.72186 27.175L430.0656 27.175L430.0656 28.628124L429.58124 28.628124Q428.8781 28.628124 428.6906 28.83125Q428.4875 29.05 428.0656 30.1125Q427.65936 31.128124 427.33124 31.51875Q427.0031 31.909374 426.3 32.221874Q427.4406 32.534374 428.53436 34.33125L430.45624 37.55L428.51874 37.55L426.64374 34.33125Q426.0656 33.3625 425.6281 33.065624Q425.20624 32.753124 424.6125 32.753124L424.6125 37.55L422.8625 37.55L422.8625 27.175ZM437.8781 27.175L446.0656 27.175L446.0656 37.55L444.3 37.55L444.3 28.628124L439.64374 28.628124L439.64374 37.55L437.8781 37.55L437.8781 27.175ZM447.22186 32.3625Q447.22186 29.4875 448.8156 28.096874Q450.15936 26.940624 452.08124 26.940624Q454.22186 26.940624 455.5656 28.346874Q456.925 29.753124 456.925 32.221874Q456.925 34.221874 456.33124 35.378124Q455.7375 36.51875 454.58124 37.159374Q453.4406 37.784374 452.08124 37.784374Q449.89374 37.784374 448.55 36.39375Q447.22186 34.9875 447.22186 32.3625ZM449.01874 32.3625Q449.01874 34.3625 449.8781 35.346874Q450.7531 36.33125 452.08124 36.33125Q453.39374 36.33125 454.2531 35.346874Q455.1281 34.346874 455.1281 32.3Q455.1281 30.378124 454.2531 29.39375Q453.3781 28.39375 452.08124 28.39375Q450.7531 28.39375 449.8781 29.39375Q449.01874 30.378124 449.01874 32.3625ZM458.8781 27.175L467.0656 27.175L467.0656 37.55L465.3 37.55L465.3 28.628124L460.64374 28.628124L460.64374 37.55L458.8781 37.55L458.8781 27.175ZM468.78436 41.55L468.59686 39.89375Q469.175 40.05 469.59686 40.05Q470.1906 40.05 470.53436 39.846874Q470.89374 39.659374 471.1125 39.315624Q471.28436 39.05 471.65936 38.003124Q471.70624 37.846874 471.8156 37.565624L467.8781 27.175L469.76874 27.175L471.925 33.190624Q472.34686 34.33125 472.675 35.58125Q472.9875 34.378124 473.39374 33.221874L475.6125 27.175L477.3781 27.175L473.425 37.721874Q472.8 39.440624 472.4406 40.08125Q471.97186 40.95625 471.3625 41.346874Q470.76874 41.753124 469.925 41.753124Q469.40936 41.753124 468.78436 41.55ZM479.72186 27.175L487.89374 27.175L487.89374 37.55L486.14374 37.55L486.14374 28.628124L481.4875 28.628124L481.4875 33.8Q481.4875 35.6125 481.3625 36.190624Q481.2531 36.753124 480.72186 37.190624Q480.1906 37.6125 479.20624 37.6125Q478.58124 37.6125 477.78436 37.534374L477.78436 36.08125L478.55 36.08125Q479.09686 36.08125 479.33124 35.971874Q479.5656 35.846874 479.64374 35.6125Q479.72186 35.3625 479.72186 34.01875L479.72186 27.175ZM498.03436 27.175L498.03436 37.55L496.28436 37.55L496.28436 33.503124L495.26874 33.503124Q494.34686 33.503124 493.89374 33.753124Q493.4406 33.9875 492.5656 35.284374L491.03436 37.55L488.84686 37.55L490.7531 34.753124Q491.6125 33.471874 492.47186 33.315624Q490.97186 33.1125 490.2375 32.2375Q489.51874 31.346874 489.51874 30.20625Q489.51874 28.8625 490.47186 28.01875Q491.425 27.175 493.22186 27.175L498.03436 27.175ZM496.28436 28.628124L493.78436 28.628124Q492.20624 28.628124 491.7531 29.128124Q491.3 29.6125 491.3 30.26875Q491.3 31.190624 491.97186 31.628124Q492.64374 32.065624 494.34686 32.065624L496.28436 32.065624L496.28436 28.628124ZM500.89374 27.175L502.65936 27.175L502.65936 36.096874L507.51874 36.096874L507.51874 27.175L509.28436 27.175L509.28436 36.096874L510.40936 36.096874L510.40936 40.4875L508.97186 40.4875L508.97186 37.55L500.89374 37.55L500.89374 27.175ZM511.8781 25.253124L511.8781 23.2375L513.64374 23.2375L513.64374 25.253124L511.8781 25.253124ZM511.8781 37.55L511.8781 27.175L513.64374 27.175L513.64374 37.55L511.8781 37.55ZM516.4875 37.55L516.4875 27.175L518.2375 27.175L518.2375 37.55L516.4875 37.55ZM514.6281 25.14375L514.6281 23.14375L516.47186 23.14375L516.47186 25.14375L514.6281 25.14375ZM518.26874 25.14375L518.26874 23.14375L520.1125 23.14375L520.1125 25.14375L518.26874 25.14375ZM523.01874 41.753124L521.76874 41.753124Q524.675 37.065624 524.675 32.378124Q524.675 30.534374 524.26874 28.7375Q523.925 27.26875 523.33124 25.925Q522.95624 25.034374 521.76874 22.9875L523.01874 22.9875Q524.8625 25.440624 525.7375 27.909374Q526.4875 30.034374 526.4875 32.3625Q526.4875 35.003124 525.47186 37.471874Q524.47186 39.925 523.01874 41.753124Z" fill-rule="nonzero"/></svg>